<?xml version="1.0" encoding="utf-8"?>
<!-- Generator: Adobe Illustrator 26.0.3, SVG Export Plug-In . SVG Version: 6.00 Build 0)  -->
<svg version="1.1" id="Layer_1" xmlns="http://www.w3.org/2000/svg" xmlns:xlink="http://www.w3.org/1999/xlink" x="0px" y="0px"
	 viewBox="0 0 56 58" style="enable-background:new 0 0 56 58;" xml:space="preserve">
<style type="text/css">
	.st0{fill:#FFFFFF;}
</style>
<g>
	<path class="st0" d="M25.23,15.72c0,2.83,0,5.66,0,8.48c0,1.3-0.73,2.02-2.04,2.02c-5.54,0-11.08,0.01-16.62,0
		c-3.57,0-6.26-2.71-6.27-6.28c0-4.12,0-8.23,0-12.35c0-3.61,2.69-6.29,6.31-6.29c4.1-0.01,8.19,0,12.29,0
		c3.65,0,6.32,2.68,6.32,6.34C25.23,10.33,25.23,13.03,25.23,15.72z M21.54,22.54c0-0.24,0-0.43,0-0.62c0-4.71,0-9.42,0-14.14
		c0-1.78-1.01-2.8-2.78-2.8c-3.98,0-7.96,0-11.94,0c-1.82,0-2.82,1-2.82,2.82c0,3.96,0,7.92,0,11.89c0,1.85,1,2.84,2.85,2.85
		c4.69,0,9.39,0,14.08,0C21.11,22.54,21.29,22.54,21.54,22.54z"/>
	<path class="st0" d="M41.29,26.23c-2.83,0-5.66,0-8.48,0c-1.3,0-2.04-0.73-2.04-2.03c0-5.54,0-11.08,0-16.62
		c0-3.58,2.7-6.27,6.27-6.28c4.14-0.01,8.27-0.01,12.41,0c3.54,0.01,6.24,2.71,6.25,6.24c0.01,4.15,0.01,8.31,0,12.46
		c-0.01,3.5-2.71,6.21-6.21,6.22C46.76,26.23,44.02,26.23,41.29,26.23z M34.46,22.51c0.15,0.01,0.24,0.02,0.34,0.02
		c4.89,0,9.77,0.01,14.66,0c1.53,0,2.55-1.1,2.56-2.67c0.01-4.06,0.01-8.12,0-12.17c0-1.65-1.05-2.69-2.71-2.69
		c-4.04,0-8.08,0-12.12,0c-1.69,0-2.71,1.04-2.72,2.75c0,1.79,0,3.58,0,5.37C34.46,16.22,34.46,19.33,34.46,22.51z"/>
	<path class="st0" d="M14.78,31.77c2.81,0,5.62,0,8.43,0c1.27,0,2.02,0.73,2.02,1.99c0,5.58,0.01,11.16,0,16.73
		c-0.01,3.47-2.72,6.19-6.17,6.2c-4.19,0.01-8.39,0.01-12.58,0c-3.45-0.01-6.16-2.74-6.17-6.2c-0.01-4.17-0.01-8.35,0-12.52
		c0.01-3.46,2.72-6.19,6.17-6.2C9.24,31.76,12.01,31.77,14.78,31.77z M21.54,35.46c-0.26,0-0.45,0-0.64,0c-4.69,0-9.39,0-14.08,0
		c-1.85,0-2.83,1-2.84,2.86c0,3.94,0,7.89,0,11.83c0,1.86,0.99,2.86,2.84,2.86c3.94,0,7.89,0,11.83,0c1.89,0,2.88-0.99,2.88-2.87
		c0-3.85,0-7.69,0-11.54C21.54,37.58,21.54,36.56,21.54,35.46z"/>
	<path class="st0" d="M30.77,42.26c0-2.83,0-5.66,0-8.48c0-1.26,0.74-2.01,2-2.01c5.56,0,11.12-0.01,16.68,0
		c3.54,0,6.24,2.71,6.25,6.24c0.01,4.15,0.01,8.31,0,12.46c-0.01,3.5-2.71,6.21-6.21,6.22c-4.17,0.01-8.35,0.01-12.52,0
		c-3.46-0.01-6.18-2.73-6.19-6.19C30.77,47.76,30.77,45.01,30.77,42.26z M34.46,35.46c0,0.26,0,0.44,0,0.61c0,4.71,0,9.42,0,14.14
		c0,1.81,1.01,2.81,2.83,2.81c3.96,0,7.92,0,11.89,0c1.82,0,2.83-1.01,2.83-2.81c0-3.96,0-7.92,0-11.89c0-1.86-0.99-2.85-2.85-2.85
		c-4.69,0-9.39,0-14.08,0C34.9,35.46,34.71,35.46,34.46,35.46z"/>
</g>
<g>
</g>
<g>
</g>
<g>
</g>
<g>
</g>
<g>
</g>
<g>
</g>
</svg>
