<?xml version="1.0" encoding="utf-8"?>
<!-- Generator: Adobe Illustrator 26.0.3, SVG Export Plug-In . SVG Version: 6.00 Build 0)  -->
<svg version="1.1" id="Layer_1" xmlns="http://www.w3.org/2000/svg" xmlns:xlink="http://www.w3.org/1999/xlink" x="0px" y="0px"
	 viewBox="0 0 56 58" style="enable-background:new 0 0 56 58;" xml:space="preserve">
<style type="text/css">
	.st0{fill:#FFFFFF;}
</style>
<path class="st0" d="M0.34,29c0-4.26,0.01-8.52-0.01-12.78c0-0.86,0.33-1.36,1.09-1.74c8.54-4.25,17.07-8.52,25.6-12.81
	c0.68-0.34,1.25-0.36,1.94-0.01c8.54,4.29,17.09,8.57,25.64,12.83c0.74,0.37,1.07,0.87,1.07,1.7c-0.02,8.54-0.02,17.08,0,25.61
	c0,0.83-0.32,1.33-1.07,1.7c-8.56,4.26-17.1,8.54-25.64,12.83c-0.68,0.34-1.26,0.33-1.94-0.01c-8.49-4.27-16.99-8.52-25.5-12.75
	c-0.88-0.44-1.21-1.01-1.2-1.98C0.36,37.4,0.34,33.2,0.34,29z M26.72,53.29c0-0.28,0-0.49,0-0.7c0-7.4-0.01-14.8,0.01-22.2
	c0-0.49-0.17-0.72-0.58-0.92c-7.54-3.76-15.07-7.53-22.61-11.3c-0.19-0.09-0.38-0.17-0.62-0.27c-0.01,0.21-0.03,0.36-0.03,0.51
	c0,7.5,0,14.99-0.01,22.49c0,0.4,0.14,0.57,0.48,0.75c7.59,3.78,15.17,7.58,22.76,11.37C26.3,53.11,26.48,53.18,26.72,53.29z
	 M53.11,17.89c-0.24,0.11-0.41,0.18-0.58,0.26c-1.51,0.75-3.01,1.52-4.53,2.25c-0.39,0.19-0.52,0.42-0.52,0.85
	c0.02,3.98,0.01,7.97,0.01,11.95c0,0.25,0,0.51-0.05,0.76c-0.14,0.76-0.95,1.21-1.66,0.91c-0.25-0.1-0.47-0.27-0.7-0.43
	c-0.97-0.69-1.94-1.38-2.94-2.09c-0.16,0.22-0.29,0.39-0.41,0.56c-1.49,2.14-2.97,4.29-4.46,6.43c-0.4,0.57-0.89,0.75-1.47,0.59
	c-0.55-0.15-0.87-0.61-0.9-1.3c-0.01-0.18,0-0.35,0-0.53c0-3.47,0-6.95,0-10.42c0-0.21,0-0.42,0-0.69
	c-0.27,0.12-0.44,0.19-0.61,0.27c-1.49,0.74-2.97,1.5-4.47,2.22c-0.41,0.2-0.55,0.43-0.55,0.89c0.02,7.42,0.01,14.84,0.01,22.26
	c0,0.2,0.02,0.4,0.03,0.66c0.2-0.09,0.32-0.14,0.44-0.2c7.64-3.82,15.28-7.65,22.92-11.45c0.38-0.19,0.43-0.42,0.43-0.78
	c-0.01-7.46-0.01-14.92-0.01-22.37C53.11,18.32,53.11,18.15,53.11,17.89z M12.97,11.55c0.29,0.16,0.47,0.26,0.65,0.36
	c7.23,3.62,14.47,7.22,21.69,10.87c0.85,0.43,1.5,0.48,2.35,0.01c1.95-1.07,3.97-2.02,6.05-3.06c-1.36-0.68-2.63-1.32-3.91-1.95
	c-6.39-3.2-12.78-6.4-19.18-9.59c-0.21-0.11-0.55-0.16-0.75-0.07C17.59,9.23,15.34,10.37,12.97,11.55z M4.5,15.79
	c0.2,0.12,0.31,0.19,0.42,0.25c7.57,3.78,15.14,7.57,22.71,11.34c0.21,0.11,0.57,0.09,0.79-0.02c1.57-0.75,3.13-1.54,4.69-2.33
	c0.15-0.07,0.28-0.17,0.45-0.27c-0.1-0.07-0.14-0.11-0.18-0.14c-7.66-3.83-15.31-7.67-22.98-11.48c-0.18-0.09-0.49-0.04-0.69,0.05
	c-1.5,0.73-2.98,1.48-4.47,2.22C5.02,15.53,4.8,15.64,4.5,15.79z M23.03,6.53c0.11,0.07,0.16,0.1,0.21,0.13
	c7.66,3.83,15.32,7.67,22.99,11.49c0.18,0.09,0.5,0.07,0.69-0.03c1.41-0.68,2.81-1.39,4.21-2.09c0.11-0.06,0.21-0.14,0.36-0.24
	c-0.29-0.15-0.51-0.27-0.73-0.38C43.8,11.93,36.85,8.45,29.9,4.97c-0.63-0.31-1.27-0.85-1.9-0.85c-0.63,0-1.27,0.54-1.9,0.86
	C25.08,5.49,24.08,6,23.03,6.53z M44.93,31.22c0-3.13,0-6.16,0-9.21c-0.1,0.02-0.16,0.02-0.21,0.05c-2.33,1.16-4.66,2.32-6.98,3.51
	c-0.16,0.08-0.3,0.39-0.3,0.59c-0.02,2.67-0.01,5.34-0.01,8.01c0,0.12,0.03,0.24,0.06,0.44c1.09-1.57,2.11-3.05,3.14-4.53
	c0.61-0.88,1.27-1,2.14-0.39C43.47,30.18,44.16,30.68,44.93,31.22z"/>
<g>
</g>
<g>
</g>
<g>
</g>
<g>
</g>
<g>
</g>
<g>
</g>
</svg>
